<mxfile host="app.diagrams.net" modified="2024-05-24T17:14:21.452Z" agent="Mozilla/5.0 (Windows NT 10.0; Win64; x64) AppleWebKit/537.36 (KHTML, like Gecko) Chrome/124.0.0.0 Safari/537.36" version="24.0.8" etag="mwKXUc1GI9EjvGo5A1jk" type="github">
  <diagram name="Seite-1" id="GNfJJYOmPsc1vmZN_qTq">
    <mxGraphModel>
      <root>
        <mxCell id="0" />
        <mxCell id="1" parent="0" />
      </root>
    </mxGraphModel>
  </diagram>
</mxfile>
